<svg width="655" height="548" viewBox="0 0 655 548" fill="none" xmlns="http://www.w3.org/2000/svg">
<path d="M0 0H80V548H0V0Z" fill="#B4C2F3"/>
<path d="M80 0H180V63.9333H80V0Z" fill="#B4C2F3"/>
<path d="M80 474.933H180V548H80V474.933Z" fill="#B4C2F3"/>
<path d="M655 0H575V548H655V0Z" fill="#B4C2F3"/>
<path d="M575 0H475V63.9333H575V0Z" fill="#B4C2F3"/>
<path d="M575 474.933H475V548H575V474.933Z" fill="#B4C2F3"/>
<path d="M555.745 206.834C568.531 214.231 568.356 232.75 555.432 239.903L402.56 324.517C389.826 331.565 374.221 322.267 374.359 307.713L375.993 135.6C376.131 121.047 391.909 112.046 404.506 119.335L555.745 206.834Z" fill="#C7D5F9"/>
<path d="M237.203 282.656C237.203 290.906 237.391 297.422 237.766 302.203C238.234 306.984 238.891 310.594 239.734 313.031C240.672 315.469 241.844 317.016 243.25 317.672C244.656 318.328 246.297 318.656 248.172 318.656C250.703 318.656 253.328 317.859 256.047 316.266C258.766 314.672 261.438 312.609 264.062 310.078C266.688 307.547 269.172 304.734 271.516 301.641C273.953 298.547 276.156 295.547 278.125 292.641C280.188 289.641 281.922 286.875 283.328 284.344C284.828 281.719 285.953 279.703 286.703 278.297L291.062 269.578L296.828 273.938L292.469 282.656C291.719 284.062 290.5 286.359 288.812 289.547C287.125 292.641 285.016 296.109 282.484 299.953C279.953 303.703 277.094 307.641 273.906 311.766C270.719 315.797 267.297 319.5 263.641 322.875C259.984 326.25 256.141 329.016 252.109 331.172C248.078 333.328 243.953 334.406 239.734 334.406C235.891 334.406 232.469 333.75 229.469 332.438C226.469 331.125 223.938 328.828 221.875 325.547C219.812 322.172 218.219 317.625 217.094 311.906C216.062 306.094 215.547 298.734 215.547 289.828C215.547 286.359 215.594 283.078 215.688 279.984C215.875 276.797 216.109 272.953 216.391 268.453C211.609 277.734 206.078 286.688 199.797 295.312C193.609 303.938 186.953 311.578 179.828 318.234C172.703 324.891 165.25 330.188 157.469 334.125C149.781 338.156 142 340.172 134.125 340.172C129.156 340.172 124.422 339.281 119.922 337.5C115.422 335.719 111.438 333 107.969 329.344C104.5 325.594 101.734 320.812 99.6719 315C97.6094 309.188 96.5781 302.25 96.5781 294.188C96.5781 281.25 98.0312 268.547 100.938 256.078C103.75 243.609 107.688 231.562 112.75 219.938C117.812 208.219 123.766 197.062 130.609 186.469C137.453 175.781 144.812 165.891 152.688 156.797C160.562 147.703 168.812 139.5 177.438 132.188C186.062 124.781 194.688 118.453 203.312 113.203C211.938 107.953 220.328 103.922 228.484 101.109C236.734 98.2969 244.422 96.8906 251.547 96.8906C259.422 96.8906 265.703 98.9062 270.391 102.938C275.078 106.875 277.422 112.5 277.422 119.812C277.422 124.688 276.438 129.469 274.469 134.156C272.594 138.75 270.062 143.203 266.875 147.516C263.781 151.734 260.219 155.766 256.188 159.609C252.25 163.359 248.266 166.781 244.234 169.875C240.203 172.875 236.266 175.547 232.422 177.891C228.672 180.141 225.438 181.922 222.719 183.234L218.5 177.469C220.844 176.25 223.516 174.562 226.516 172.406C229.609 170.25 232.703 167.719 235.797 164.812C238.891 161.906 241.891 158.719 244.797 155.25C247.797 151.688 250.469 147.984 252.812 144.141C255.156 140.203 257.031 136.172 258.438 132.047C259.844 127.828 260.547 123.656 260.547 119.531C260.547 115.5 259.469 112.172 257.312 109.547C255.25 106.828 251.875 105.469 247.188 105.469C241.656 105.469 235.656 106.922 229.188 109.828C222.719 112.641 216.062 116.672 209.219 121.922C202.375 127.172 195.484 133.453 188.547 140.766C181.703 147.984 175.094 156 168.719 164.812C162.344 173.531 156.391 182.906 150.859 192.938C145.422 202.875 140.641 213.234 136.516 224.016C132.484 234.703 129.297 245.625 126.953 256.781C124.609 267.844 123.438 278.859 123.438 289.828C123.438 294.891 123.812 299.578 124.562 303.891C125.312 308.109 126.531 311.766 128.219 314.859C129.906 317.859 132.109 320.203 134.828 321.891C137.547 323.578 140.922 324.422 144.953 324.422C150.016 324.422 154.984 323.297 159.859 321.047C164.734 318.703 169.469 315.562 174.062 311.625C178.656 307.688 183.062 303.094 187.281 297.844C191.594 292.594 195.625 286.969 199.375 280.969C203.125 274.969 206.594 268.828 209.781 262.547C213.062 256.172 215.969 249.891 218.5 243.703C219.156 236.672 219.906 229.969 220.75 223.594C221.594 217.125 222.438 211.359 223.281 206.297C224.125 201.234 224.922 197.062 225.672 193.781C226.422 190.406 227.078 188.344 227.641 187.594C228.016 186.938 228.812 186.188 230.031 185.344C231.25 184.5 232.609 183.75 234.109 183.094C235.703 182.344 237.297 181.734 238.891 181.266C240.484 180.703 241.844 180.422 242.969 180.422C245.781 180.422 247.188 181.828 247.188 184.641C247.188 187.266 247 190.312 246.625 193.781C246.25 197.25 245.734 200.859 245.078 204.609C244.422 208.359 243.625 212.156 242.688 216C241.844 219.75 240.859 223.219 239.734 226.406C238.984 236.625 238.375 246.469 237.906 255.938C237.438 265.312 237.203 274.219 237.203 282.656Z" fill="black"/>
<path d="M293.661 184.36V156.568H266.877V148.936H293.661V121.144H302.301V148.936H329.085V156.568H302.301V184.36H293.661Z" fill="black"/>
<path d="M167.579 423V419.328H169.631V405.9H167.579V402.192H178.883C181.763 402.192 183.959 402.684 185.471 403.668C187.007 404.628 187.775 406.224 187.775 408.456C187.775 410.712 187.055 412.356 185.615 413.388C184.175 414.396 182.099 414.9 179.387 414.9H177.119V411.228H178.559C179.495 411.228 180.215 411 180.719 410.544C181.247 410.088 181.511 409.416 181.511 408.528C181.511 407.664 181.271 407.016 180.791 406.584C180.311 406.128 179.615 405.9 178.703 405.9H175.751V419.328H178.055V423H167.579ZM189.283 423V419.832H191.155V411.732H189.283V408.6H196.483V413.028L195.871 413.064C196.255 411.792 196.687 410.82 197.167 410.148C197.671 409.452 198.199 408.972 198.751 408.708C199.327 408.42 199.891 408.276 200.443 408.276C200.947 408.276 201.427 408.336 201.883 408.456C202.339 408.552 202.771 408.708 203.179 408.924L202.063 413.244C201.703 413.028 201.259 412.848 200.731 412.704C200.227 412.56 199.687 412.488 199.111 412.488C198.511 412.488 197.923 412.668 197.347 413.028C196.771 413.388 196.483 414 196.483 414.864V419.832H198.535V423H189.283ZM212.256 423.396C210.6 423.396 209.148 423.096 207.9 422.496C206.676 421.896 205.716 421.032 205.02 419.904C204.324 418.752 203.976 417.384 203.976 415.8C203.976 414.288 204.312 412.968 204.984 411.84C205.656 410.712 206.58 409.824 207.756 409.176C208.956 408.528 210.324 408.204 211.86 408.204C213.372 408.204 214.656 408.528 215.712 409.176C216.792 409.8 217.608 410.676 218.16 411.804C218.736 412.908 219.024 414.192 219.024 415.656V416.628H206.928L206.964 414.36H214.092C214.092 413.784 213.996 413.304 213.804 412.92C213.636 412.512 213.372 412.2 213.012 411.984C212.652 411.768 212.208 411.66 211.68 411.66C211.08 411.66 210.576 411.816 210.168 412.128C209.76 412.416 209.448 412.848 209.232 413.424C209.04 413.976 208.944 414.636 208.944 415.404C208.944 416.292 209.112 417.036 209.448 417.636C209.808 418.212 210.288 418.656 210.888 418.968C211.488 419.256 212.184 419.4 212.976 419.4C213.84 419.4 214.656 419.256 215.424 418.968C216.192 418.68 216.864 418.308 217.44 417.852L218.916 421.02C218.1 421.74 217.128 422.316 216 422.748C214.872 423.18 213.624 423.396 212.256 423.396ZM220.322 423V419.832H222.194V411.732H220.358V408.6H227.162L227.27 410.328L225.938 410.868C226.922 410.052 227.93 409.416 228.962 408.96C229.994 408.48 231.074 408.24 232.202 408.24C233.81 408.24 235.022 408.732 235.838 409.716C236.678 410.676 237.098 411.864 237.098 413.28V419.832H238.934V423H230.222V419.832H231.77V414.108C231.77 413.388 231.602 412.836 231.266 412.452C230.93 412.044 230.45 411.84 229.826 411.84C229.298 411.84 228.734 411.972 228.134 412.236C227.534 412.476 226.97 412.8 226.442 413.208L227.558 411.048V419.832H229.106V423H220.322ZM240.086 423V419.832H241.634V414.108C241.634 413.388 241.454 412.836 241.094 412.452C240.758 412.044 240.29 411.84 239.69 411.84C239.138 411.84 238.574 411.96 237.998 412.2C237.446 412.44 236.918 412.764 236.414 413.172L235.766 410.868C236.75 410.052 237.746 409.416 238.754 408.96C239.786 408.48 240.878 408.24 242.03 408.24C243.59 408.24 244.802 408.72 245.666 409.68C246.53 410.616 246.962 411.804 246.962 413.244V419.832H248.798V423H240.086ZM249.678 423V419.832H251.55V411.732H249.678V408.6H256.914V419.832H258.75V423H249.678ZM253.818 405.936C252.882 405.936 252.126 405.66 251.55 405.108C250.974 404.556 250.686 403.836 250.686 402.948C250.686 402.036 250.974 401.316 251.55 400.788C252.126 400.236 252.882 399.96 253.818 399.96C254.754 399.96 255.498 400.236 256.05 400.788C256.626 401.316 256.914 402.036 256.914 402.948C256.938 403.836 256.662 404.556 256.086 405.108C255.51 405.66 254.754 405.936 253.818 405.936ZM266.283 423.36C265.179 423.36 264.255 423.132 263.511 422.676C262.791 422.22 262.251 421.608 261.891 420.84C261.531 420.072 261.351 419.232 261.351 418.32V411.732H259.551V408.6H266.715V417.528C266.715 418.224 266.871 418.776 267.183 419.184C267.519 419.568 267.999 419.76 268.623 419.76C269.223 419.76 269.811 419.616 270.387 419.328C270.987 419.04 271.539 418.644 272.043 418.14L270.963 420.444V411.732H269.379V408.6H276.291V419.832H278.163V423H271.395L271.215 421.128L272.547 420.624C271.611 421.464 270.627 422.136 269.595 422.64C268.563 423.12 267.459 423.36 266.283 423.36ZM279.209 423V419.832H281.081V411.732H279.245V408.6H286.049L286.157 410.328L284.825 410.868C285.809 410.052 286.817 409.416 287.849 408.96C288.881 408.48 289.961 408.24 291.089 408.24C292.697 408.24 293.909 408.732 294.725 409.716C295.565 410.676 295.985 411.864 295.985 413.28V419.832H297.821V423H289.109V419.832H290.657V414.108C290.657 413.388 290.489 412.836 290.153 412.452C289.817 412.044 289.337 411.84 288.713 411.84C288.185 411.84 287.621 411.972 287.021 412.236C286.421 412.476 285.857 412.8 285.329 413.208L286.445 411.048V419.832H287.993V423H279.209ZM298.973 423V419.832H300.521V414.108C300.521 413.388 300.341 412.836 299.981 412.452C299.645 412.044 299.177 411.84 298.577 411.84C298.025 411.84 297.461 411.96 296.885 412.2C296.333 412.44 295.805 412.764 295.301 413.172L294.653 410.868C295.637 410.052 296.633 409.416 297.641 408.96C298.673 408.48 299.765 408.24 300.917 408.24C302.477 408.24 303.689 408.72 304.553 409.68C305.417 410.616 305.849 411.804 305.849 413.244V419.832H307.685V423H298.973ZM332.015 423.36C331.007 423.36 329.987 423.204 328.955 422.892C327.923 422.58 327.011 422.124 326.219 421.524C325.427 420.924 324.899 420.204 324.635 419.364H325.427V423H321.395V415.908H324.995C325.331 416.7 325.787 417.396 326.363 417.996C326.939 418.596 327.611 419.064 328.379 419.4C329.147 419.736 329.999 419.904 330.935 419.904C331.727 419.904 332.351 419.736 332.807 419.4C333.287 419.04 333.527 418.512 333.527 417.816C333.527 417.312 333.419 416.904 333.203 416.592C332.987 416.256 332.627 415.992 332.123 415.8C331.643 415.584 331.007 415.392 330.215 415.224L327.839 414.756C325.607 414.276 323.939 413.496 322.835 412.416C321.755 411.336 321.215 409.872 321.215 408.024C321.215 406.8 321.503 405.72 322.079 404.784C322.655 403.848 323.459 403.128 324.491 402.624C325.547 402.096 326.771 401.832 328.163 401.832C329.795 401.832 331.199 402.12 332.375 402.696C333.551 403.272 334.499 404.1 335.219 405.18H334.391V402.192H338.171V408.276H334.715C334.475 407.796 334.127 407.328 333.671 406.872C333.239 406.416 332.699 406.044 332.051 405.756C331.403 405.444 330.623 405.288 329.711 405.288C328.943 405.288 328.343 405.456 327.911 405.792C327.479 406.104 327.263 406.56 327.263 407.16C327.263 407.832 327.563 408.36 328.163 408.744C328.763 409.128 329.735 409.452 331.079 409.716L332.339 409.968C333.923 410.256 335.219 410.688 336.227 411.264C337.235 411.816 337.979 412.548 338.459 413.46C338.963 414.348 339.215 415.452 339.215 416.772C339.215 418.14 338.915 419.316 338.315 420.3C337.715 421.26 336.875 422.016 335.795 422.568C334.739 423.096 333.479 423.36 332.015 423.36ZM347.668 423C346.18 423 345.028 422.664 344.212 421.992C343.42 421.296 343.024 420.204 343.024 418.716V411.732H341.224V408.6H342.988V403.92L348.352 403.02V408.6H351.592V411.732H348.352V417.816C348.352 418.512 348.472 419.004 348.712 419.292C348.976 419.58 349.42 419.724 350.044 419.724H351.7V423H347.668ZM353.181 423V419.832H355.053V411.732H353.181V408.6H360.381V413.028L359.769 413.064C360.153 411.792 360.585 410.82 361.065 410.148C361.569 409.452 362.097 408.972 362.649 408.708C363.225 408.42 363.789 408.276 364.341 408.276C364.845 408.276 365.325 408.336 365.781 408.456C366.237 408.552 366.669 408.708 367.077 408.924L365.961 413.244C365.601 413.028 365.157 412.848 364.629 412.704C364.125 412.56 363.585 412.488 363.009 412.488C362.409 412.488 361.821 412.668 361.245 413.028C360.669 413.388 360.381 414 360.381 414.864V419.832H362.433V423H353.181ZM376.155 423.396C374.499 423.396 373.047 423.096 371.799 422.496C370.575 421.896 369.615 421.032 368.919 419.904C368.223 418.752 367.875 417.384 367.875 415.8C367.875 414.288 368.211 412.968 368.883 411.84C369.555 410.712 370.479 409.824 371.655 409.176C372.855 408.528 374.223 408.204 375.759 408.204C377.271 408.204 378.555 408.528 379.611 409.176C380.691 409.8 381.507 410.676 382.059 411.804C382.635 412.908 382.923 414.192 382.923 415.656V416.628H370.827L370.863 414.36H377.991C377.991 413.784 377.895 413.304 377.703 412.92C377.535 412.512 377.271 412.2 376.911 411.984C376.551 411.768 376.107 411.66 375.579 411.66C374.979 411.66 374.475 411.816 374.067 412.128C373.659 412.416 373.347 412.848 373.131 413.424C372.939 413.976 372.843 414.636 372.843 415.404C372.843 416.292 373.011 417.036 373.347 417.636C373.707 418.212 374.187 418.656 374.787 418.968C375.387 419.256 376.083 419.4 376.875 419.4C377.739 419.4 378.555 419.256 379.323 418.968C380.091 418.68 380.763 418.308 381.339 417.852L382.815 421.02C381.999 421.74 381.027 422.316 379.899 422.748C378.771 423.18 377.523 423.396 376.155 423.396ZM389.549 423.36C388.085 423.36 386.921 422.976 386.057 422.208C385.193 421.44 384.761 420.42 384.761 419.148C384.761 418.068 385.025 417.204 385.553 416.556C386.105 415.884 386.813 415.404 387.677 415.116C388.565 414.828 389.501 414.684 390.485 414.684C391.301 414.684 392.057 414.756 392.753 414.9C393.449 415.044 394.025 415.224 394.481 415.44L393.653 415.62V414.432C393.653 413.52 393.413 412.848 392.933 412.416C392.477 411.96 391.805 411.732 390.917 411.732C390.245 411.732 389.525 411.828 388.757 412.02C388.013 412.212 387.149 412.524 386.165 412.956L384.977 409.896C386.177 409.344 387.377 408.936 388.577 408.672C389.777 408.384 390.989 408.24 392.213 408.24C393.629 408.24 394.829 408.48 395.813 408.96C396.821 409.416 397.577 410.088 398.081 410.976C398.609 411.84 398.873 412.884 398.873 414.108V419.832H400.601V423H394.481L393.761 420.768H395.057C394.265 421.632 393.425 422.28 392.537 422.712C391.649 423.144 390.653 423.36 389.549 423.36ZM391.385 420.588C391.889 420.588 392.393 420.468 392.897 420.228C393.401 419.988 393.881 419.592 394.337 419.04L393.653 420.372V416.88L394.337 417.636C394.001 417.444 393.605 417.288 393.149 417.168C392.717 417.048 392.237 416.988 391.709 416.988C391.133 416.988 390.617 417.132 390.161 417.42C389.729 417.684 389.513 418.152 389.513 418.824C389.513 419.376 389.669 419.808 389.981 420.12C390.317 420.432 390.785 420.588 391.385 420.588ZM401.623 423V419.832H403.495V411.732H401.659V408.6H408.463L408.571 410.328L407.239 410.868C408.223 410.052 409.231 409.416 410.263 408.96C411.295 408.48 412.375 408.24 413.503 408.24C415.111 408.24 416.323 408.732 417.139 409.716C417.979 410.676 418.399 411.864 418.399 413.28V419.832H420.235V423H411.523V419.832H413.071V414.108C413.071 413.388 412.903 412.836 412.567 412.452C412.231 412.044 411.751 411.84 411.127 411.84C410.599 411.84 410.035 411.972 409.435 412.236C408.835 412.476 408.271 412.8 407.743 413.208L408.859 411.048V419.832H410.407V423H401.623ZM421.387 423V419.832H422.935V414.108C422.935 413.388 422.755 412.836 422.395 412.452C422.059 412.044 421.591 411.84 420.991 411.84C420.439 411.84 419.875 411.96 419.299 412.2C418.747 412.44 418.219 412.764 417.715 413.172L417.067 410.868C418.051 410.052 419.047 409.416 420.055 408.96C421.087 408.48 422.179 408.24 423.331 408.24C424.891 408.24 426.103 408.72 426.967 409.68C427.831 410.616 428.263 411.804 428.263 413.244V419.832H430.099V423H421.387ZM430.978 423V419.832H432.85V411.732H430.978V408.6H438.214V419.832H440.05V423H430.978ZM435.118 405.936C434.182 405.936 433.426 405.66 432.85 405.108C432.274 404.556 431.986 403.836 431.986 402.948C431.986 402.036 432.274 401.316 432.85 400.788C433.426 400.236 434.182 399.96 435.118 399.96C436.054 399.96 436.798 400.236 437.35 400.788C437.926 401.316 438.214 402.036 438.214 402.948C438.238 403.836 437.962 404.556 437.386 405.108C436.81 405.66 436.054 405.936 435.118 405.936ZM441.068 423V419.832H442.94V411.732H441.068V408.6H447.908L448.016 410.364L446.684 410.868C447.668 410.052 448.676 409.416 449.708 408.96C450.74 408.48 451.82 408.24 452.948 408.24C454.508 408.24 455.72 408.72 456.584 409.68C457.448 410.616 457.88 411.804 457.88 413.244V419.832H459.716V423H451.004V419.832H452.516V414.108C452.516 413.388 452.348 412.836 452.012 412.452C451.676 412.044 451.208 411.84 450.608 411.84C450.032 411.84 449.456 411.972 448.88 412.236C448.304 412.476 447.74 412.812 447.188 413.244L448.304 411.048V419.832H449.852V423H441.068ZM469.112 430.02C467.96 430.02 466.856 429.912 465.8 429.696C464.768 429.48 463.724 429.204 462.668 428.868L463.532 425.592C464.468 425.88 465.296 426.084 466.016 426.204C466.736 426.348 467.444 426.42 468.14 426.42C469.316 426.42 470.204 426.12 470.804 425.52C471.404 424.944 471.704 424.092 471.704 422.964V421.344L473.072 420.696C472.28 421.584 471.476 422.244 470.66 422.676C469.844 423.084 468.836 423.288 467.636 423.288C466.22 423.288 464.996 422.988 463.964 422.388C462.932 421.764 462.14 420.9 461.588 419.796C461.036 418.668 460.76 417.336 460.76 415.8C460.76 414.264 461.036 412.932 461.588 411.804C462.14 410.676 462.92 409.8 463.928 409.176C464.96 408.552 466.184 408.24 467.6 408.24C468.752 408.24 469.76 408.492 470.624 408.996C471.512 409.5 472.196 410.088 472.676 410.76L471.956 411.048L471.992 408.6H478.796V411.732H477.032V422.244C477.032 423.972 476.708 425.412 476.06 426.564C475.412 427.716 474.5 428.58 473.324 429.156C472.148 429.732 470.744 430.02 469.112 430.02ZM469.4 419.472C470.024 419.472 470.612 419.352 471.164 419.112C471.74 418.848 472.268 418.476 472.748 417.996L471.704 420.192L471.668 411.624L472.568 413.712C472.112 413.184 471.596 412.776 471.02 412.488C470.468 412.2 469.904 412.056 469.328 412.056C468.728 412.056 468.2 412.2 467.744 412.488C467.288 412.752 466.928 413.172 466.664 413.748C466.4 414.3 466.268 414.996 466.268 415.836C466.268 416.58 466.4 417.228 466.664 417.78C466.952 418.308 467.324 418.728 467.78 419.04C468.236 419.328 468.776 419.472 469.4 419.472ZM481.43 423V418.536H486.218V423H481.43Z" fill="black"/>
<path d="M493.374 207.865C507.348 214.99 507.158 235.021 493.051 241.879L438.366 268.466C425.676 274.636 410.926 265.308 411.059 251.198L411.574 196.992C411.708 182.882 426.632 173.836 439.203 180.245L493.374 207.865Z" fill="#36ACDE"/>
</svg>
