 <svg  viewBox="0 0 200 344" fill="none" xmlns="http://www.w3.org/2000/svg">
<mask id="path-1-inside-1_25_5" fill="white">
<path fill-rule="evenodd" clip-rule="evenodd" d="M100 197.131C155.228 197.131 200 153.001 200 98.5653C200 44.1292 155.228 0 100 0C44.7715 0 0 44.1292 0 98.5653C0 153.001 44.7715 197.131 100 197.131ZM100.25 197.131C95.1414 197.131 91 201.272 91 206.381V334.25C91 339.359 95.1414 343.5 100.25 343.5C105.359 343.5 109.5 339.359 109.5 334.25V206.381C109.5 201.272 105.359 197.131 100.25 197.131Z"/>
</mask>
<path d="M179 98.5653C179 141.118 143.918 176.131 100 176.131V218.131C166.539 218.131 221 164.884 221 98.5653H179ZM100 21C143.918 21 179 56.0122 179 98.5653H221C221 32.2461 166.539 -21 100 -21V21ZM21 98.5653C21 56.0122 56.0824 21 100 21V-21C33.4607 -21 -21 32.2461 -21 98.5653H21ZM100 176.131C56.0824 176.131 21 141.118 21 98.5653H-21C-21 164.884 33.4607 218.131 100 218.131V176.131ZM112 206.381C112 212.87 106.739 218.131 100.25 218.131V176.131C83.5434 176.131 70 189.674 70 206.381H112ZM112 334.25V206.381H70V334.25H112ZM100.25 322.5C106.739 322.5 112 327.761 112 334.25H70C70 350.957 83.5434 364.5 100.25 364.5V322.5ZM88.5 334.25C88.5 327.761 93.7607 322.5 100.25 322.5V364.5C116.957 364.5 130.5 350.957 130.5 334.25H88.5ZM88.5 206.381V334.25H130.5V206.381H88.5ZM100.25 218.131C93.7606 218.131 88.5 212.87 88.5 206.381H130.5C130.5 189.674 116.957 176.131 100.25 176.131V218.131Z" fill="white" mask="url(#path-1-inside-1_25_5)"/>
</svg>
