<svg viewBox="0 0 450 462" fill="none" xmlns="http://www.w3.org/2000/svg">
<path d="M64.0191 449.239L165.706 338.367C203.755 359.707 250.164 368.487 298.431 359.158C380.53 343.264 443.764 273.826 449.215 193.562C457.311 74.2275 347.425 -18.7321 225.186 4.04217C142.934 19.3697 79.137 88.3901 73.1363 168.619C69.5931 215.782 84.5144 258.898 111.362 292.446L9.67458 403.318C-3.59485 417.786 -2.20146 439.798 12.7865 452.477C27.7917 465.143 50.7666 463.689 64.0191 449.239ZM254.046 69.7239C317.887 65.6825 372.983 112.292 376.866 173.626C380.749 234.959 331.969 288.144 268.128 292.186C204.287 296.227 149.19 249.617 145.308 188.284C141.425 126.951 190.186 73.7663 254.046 69.7239Z" fill="#C7CDD2"/>
</svg>
